<?xml version="1.0" encoding="utf-8"?>
<!-- Generator: Adobe Illustrator 16.0.0, SVG Export Plug-In . SVG Version: 6.00 Build 0)  -->
<!DOCTYPE svg PUBLIC "-//W3C//DTD SVG 1.1//EN" "http://www.w3.org/Graphics/SVG/1.1/DTD/svg11.dtd">
<svg version="1.1" id="Vrstva_1" xmlns="http://www.w3.org/2000/svg" xmlns:xlink="http://www.w3.org/1999/xlink" x="0px" y="0px"
	 width="11px" height="13px" viewBox="0 0 11 13" enable-background="new 0 0 11 13" xml:space="preserve">
<path fill="#E42620" d="M9.604,5.294V3.557c0-0.09-0.096-3.532-4.023-3.532c-3.738,0-3.935,3.395-3.935,3.532v1.729H1.477
	c-0.692,0-1.252,0.561-1.252,1.254v5.183c0,0.691,0.561,1.251,1.252,1.251h8.046c0.693,0,1.253-0.561,1.253-1.251V6.541
	C10.776,5.875,10.256,5.336,9.604,5.294z M5.624,1.435c2.424,0,2.21,1.896,2.21,2.122v1.729h-4.42V3.557
	C3.414,3.547,3.281,1.435,5.624,1.435z"/>
</svg>
