<?xml version="1.0" encoding="utf-8"?>
<!-- Generator: Adobe Illustrator 16.0.0, SVG Export Plug-In . SVG Version: 6.00 Build 0)  -->
<!DOCTYPE svg PUBLIC "-//W3C//DTD SVG 1.1//EN" "http://www.w3.org/Graphics/SVG/1.1/DTD/svg11.dtd">
<svg version="1.1" id="Vrstva_1" xmlns="http://www.w3.org/2000/svg" xmlns:xlink="http://www.w3.org/1999/xlink" x="0px" y="0px"
	 width="17.84px" height="17.84px" viewBox="0 0 17.84 17.84" enable-background="new 0 0 17.84 17.84" xml:space="preserve">
<circle fill="#E20613" cx="317.582" cy="254.25" r="8.917"/>
<path fill="#FFFFFF" d="M320.992,252.414v-1.445c0-0.074-0.079-2.934-3.342-2.934c-3.107,0-3.27,2.82-3.27,2.934v1.438h-0.142
	c-0.575,0-1.042,0.466-1.042,1.042v4.308c0,0.575,0.466,1.041,1.042,1.041h6.688c0.575,0,1.042-0.466,1.042-1.041v-4.308
	C321.969,252.896,321.536,252.449,320.992,252.414z M317.687,249.207c2.015,0,1.836,1.575,1.836,1.762v1.438h-3.673v-1.438
	C315.85,250.961,315.738,249.207,317.687,249.207z"/>
<circle fill="#E20613" cx="8.919" cy="8.92" r="8.917"/>
<path fill="#FFFFFF" d="M12.329,7.084V5.639c0-0.074-0.079-2.934-3.342-2.934c-3.107,0-3.27,2.82-3.27,2.934v1.438H5.576
	c-0.575,0-1.042,0.466-1.042,1.042v4.308c0,0.575,0.466,1.041,1.042,1.041h6.688c0.575,0,1.042-0.466,1.042-1.041V8.119
	C13.306,7.566,12.873,7.119,12.329,7.084z M9.023,3.877c2.015,0,1.836,1.575,1.836,1.762v1.438H7.187V5.639
	C7.187,5.631,7.075,3.877,9.023,3.877z"/>
</svg>
