<?xml version="1.0" encoding="UTF-8"?>
<svg xmlns="http://www.w3.org/2000/svg" xmlns:xlink="http://www.w3.org/1999/xlink" width="255.1181pt" height="85.0394pt" viewBox="0 0 255.1181 85.0394" version="1.1">
<g id="surface1">
<path style=" stroke:none;fill-rule:nonzero;fill:rgb(0%,0%,85.998535%);fill-opacity:1;" d="M 13.828125 37.292969 L 17.300781 37.292969 L 17.300781 15 L 13.828125 15 Z M 19.59375 37.292969 L 20.769531 37.292969 L 18.605469 15 L 17.425781 15 Z M 20.898438 37.292969 L 22.074219 37.292969 L 24.242188 15 L 23.0625 15 Z M 24.367188 37.292969 L 27.871094 37.292969 L 27.871094 15 L 24.367188 15 Z M 24.367188 37.292969 "/>
<path style=" stroke:none;fill-rule:nonzero;fill:rgb(0%,0%,85.998535%);fill-opacity:1;" d="M 37.519531 15 L 37.519531 32.164062 C 37.519531 35.160156 40.226562 37.484375 43.125 37.484375 C 46.023438 37.484375 48.730469 35.160156 48.730469 32.164062 L 48.730469 15 L 45.226562 15 L 45.226562 32.039062 C 45.226562 33.25 44.144531 34.109375 43.125 34.109375 C 42.105469 34.109375 41.023438 33.25 41.023438 32.039062 L 41.023438 15 Z M 37.519531 15 "/>
<path style=" stroke:none;fill-rule:nonzero;fill:rgb(0%,0%,85.998535%);fill-opacity:1;" d="M 59.523438 15 L 59.523438 37.292969 L 63.027344 37.292969 L 63.027344 15 Z M 63.15625 15 L 66.46875 37.292969 L 67.675781 37.292969 L 64.363281 15 Z M 67.804688 15 L 67.804688 37.292969 L 71.308594 37.292969 L 71.308594 15 Z M 67.804688 15 "/>
<path style=" stroke:none;fill-rule:nonzero;fill:rgb(0%,0%,85.998535%);fill-opacity:1;" d="M 82.929688 36.050781 L 82.929688 37.292969 L 92.453125 37.292969 L 92.453125 36.050781 L 89.425781 36.050781 L 89.425781 16.242188 L 92.453125 16.242188 L 92.453125 15 L 82.929688 15 L 82.929688 16.242188 L 85.921875 16.242188 L 85.921875 36.050781 Z M 82.929688 36.050781 "/>
<path style=" stroke:none;fill-rule:nonzero;fill:rgb(0%,0%,85.998535%);fill-opacity:1;" d="M 19.082031 46.65625 L 14.273438 68.949219 L 16.058594 68.949219 L 17.554688 61.910156 L 24.050781 61.910156 L 25.578125 68.949219 L 27.363281 68.949219 L 22.617188 46.65625 L 20.898438 46.65625 L 23.761719 60.320312 L 17.839844 60.320312 L 20.769531 46.65625 Z M 19.082031 46.65625 "/>
<path style=" stroke:none;fill-rule:nonzero;fill:rgb(0%,0%,85.998535%);fill-opacity:1;" d="M 38.125 46.65625 L 38.125 68.949219 L 39.84375 68.949219 L 39.84375 59.523438 L 42.742188 59.523438 L 48.027344 68.949219 L 50.003906 68.949219 L 44.558594 59.332031 C 47.167969 59.109375 49.238281 56.910156 49.238281 54.207031 L 49.238281 51.976562 C 49.238281 49.078125 46.820312 46.65625 43.921875 46.65625 Z M 43.761719 57.898438 L 39.84375 57.898438 L 39.84375 48.25 L 43.761719 48.25 C 45.800781 48.25 47.550781 49.90625 47.550781 52.007812 L 47.550781 54.015625 C 47.550781 56.308594 45.894531 57.898438 43.761719 57.898438 "/>
<path style=" stroke:none;fill-rule:nonzero;fill:rgb(0%,0%,85.998535%);fill-opacity:1;" d="M 64.554688 48.25 L 64.554688 68.949219 L 66.277344 68.949219 L 66.277344 48.25 L 72.230469 48.25 L 72.230469 46.65625 L 58.601562 46.65625 L 58.601562 48.25 Z M 64.554688 48.25 "/>
<path style=" stroke:none;fill-rule:nonzero;fill:rgb(0%,0%,85.998535%);fill-opacity:1;" d="M 87.707031 69.140625 C 90.765625 69.140625 93.214844 66.976562 93.214844 63.820312 L 93.214844 62.453125 C 93.214844 58.824219 90.160156 57.582031 88.058594 57.101562 C 86.113281 56.65625 83.917969 55.925781 83.917969 53.3125 L 83.917969 51.816406 C 83.917969 49.746094 85.699219 48.121094 87.707031 48.121094 C 89.679688 48.121094 91.496094 49.746094 91.496094 51.816406 L 91.496094 52.613281 L 93.214844 52.613281 L 93.214844 51.785156 C 93.214844 48.726562 90.765625 46.46875 87.707031 46.46875 C 84.648438 46.46875 82.199219 48.726562 82.199219 51.785156 L 82.199219 53.3125 C 82.199219 57.039062 85.351562 58.21875 87.292969 58.664062 C 89.332031 59.109375 91.496094 59.839844 91.496094 62.484375 L 91.496094 63.789062 C 91.496094 65.859375 89.714844 67.484375 87.738281 67.484375 C 85.734375 67.484375 83.917969 65.859375 83.917969 63.789062 L 83.917969 63.058594 L 82.199219 63.058594 L 82.199219 63.820312 C 82.199219 66.976562 84.648438 69.140625 87.707031 69.140625 "/>
<path style=" stroke:none;fill-rule:nonzero;fill:rgb(0%,0%,85.998535%);fill-opacity:1;" d="M 110.261719 14.523438 C 107.6875 14.523438 106.109375 16.332031 106.109375 19.261719 C 106.109375 22.203125 107.675781 24 110.222656 24 C 112.441406 24 113.878906 22.761719 114.058594 20.609375 L 112.132812 20.609375 C 111.992188 21.71875 111.292969 22.34375 110.222656 22.34375 C 108.875 22.34375 108.046875 21.183594 108.046875 19.261719 C 108.046875 17.347656 108.886719 16.175781 110.261719 16.175781 C 111.320312 16.175781 112.019531 16.816406 112.132812 17.871094 L 114.019531 17.871094 C 113.929688 15.898438 112.503906 14.523438 110.261719 14.523438 "/>
<path style=" stroke:none;fill-rule:nonzero;fill:rgb(0%,0%,85.998535%);fill-opacity:1;" d="M 118.46875 22.738281 C 117.707031 22.738281 117.054688 22.265625 117.003906 20.929688 L 121.652344 20.929688 C 121.652344 20.214844 121.589844 19.71875 121.449219 19.273438 C 121.042969 17.960938 119.945312 17.121094 118.457031 17.121094 C 116.433594 17.121094 115.246094 18.597656 115.246094 20.507812 C 115.246094 22.570312 116.433594 24 118.46875 24 C 120.1875 24 121.308594 23.019531 121.566406 21.832031 L 119.742188 21.832031 C 119.65625 22.355469 119.183594 22.738281 118.46875 22.738281 Z M 118.457031 18.382812 C 119.171875 18.382812 119.757812 18.828125 119.871094 19.808594 L 117.042969 19.808594 C 117.183594 18.828125 117.730469 18.382812 118.457031 18.382812 "/>
<path style=" stroke:none;fill-rule:nonzero;fill:rgb(0%,0%,85.998535%);fill-opacity:1;" d="M 126.792969 17.171875 C 125.964844 17.171875 125.316406 17.566406 124.894531 18.140625 L 124.867188 18.140625 L 124.867188 17.324219 L 123.199219 17.324219 L 123.199219 23.792969 L 124.984375 23.792969 L 124.984375 20.332031 C 124.984375 19.160156 125.519531 18.574219 126.257812 18.574219 C 126.957031 18.574219 127.390625 19.019531 127.390625 20 L 127.390625 23.792969 L 129.175781 23.792969 L 129.175781 19.820312 C 129.175781 18.0625 128.246094 17.171875 126.792969 17.171875 "/>
<path style=" stroke:none;fill-rule:nonzero;fill:rgb(0%,0%,85.998535%);fill-opacity:1;" d="M 133.90625 22.457031 C 133.292969 22.457031 133.066406 22.175781 133.066406 21.464844 L 133.066406 18.648438 L 134.300781 18.648438 L 134.300781 17.324219 L 133.066406 17.324219 L 133.066406 15.644531 L 131.28125 15.644531 L 131.28125 17.324219 L 130.238281 17.324219 L 130.238281 18.648438 L 131.28125 18.648438 L 131.28125 21.78125 C 131.28125 23.285156 131.929688 23.882812 133.421875 23.882812 C 133.726562 23.882812 134.121094 23.832031 134.363281 23.757812 L 134.363281 22.394531 C 134.25 22.433594 134.070312 22.457031 133.90625 22.457031 "/>
<path style=" stroke:none;fill-rule:nonzero;fill:rgb(0%,0%,85.998535%);fill-opacity:1;" d="M 139.222656 17.222656 C 138.457031 17.222656 137.882812 17.539062 137.453125 18.242188 L 137.425781 18.242188 L 137.425781 17.324219 L 135.78125 17.324219 L 135.78125 23.792969 L 137.566406 23.792969 L 137.566406 20.738281 C 137.566406 19.464844 138.152344 18.777344 139.246094 18.777344 C 139.425781 18.777344 139.605469 18.800781 139.808594 18.839844 L 139.808594 17.296875 C 139.628906 17.246094 139.398438 17.222656 139.222656 17.222656 "/>
<path style=" stroke:none;fill-rule:nonzero;fill:rgb(0%,0%,85.998535%);fill-opacity:1;" d="M 143.8125 22.738281 C 143.046875 22.738281 142.398438 22.265625 142.347656 20.929688 L 146.996094 20.929688 C 146.996094 20.214844 146.933594 19.71875 146.792969 19.273438 C 146.386719 17.960938 145.289062 17.121094 143.800781 17.121094 C 141.773438 17.121094 140.589844 18.597656 140.589844 20.507812 C 140.589844 22.570312 141.773438 24 143.8125 24 C 145.53125 24 146.652344 23.019531 146.90625 21.832031 L 145.085938 21.832031 C 144.996094 22.355469 144.527344 22.738281 143.8125 22.738281 Z M 143.800781 18.382812 C 144.511719 18.382812 145.097656 18.828125 145.214844 19.808594 L 142.386719 19.808594 C 142.527344 18.828125 143.074219 18.382812 143.800781 18.382812 "/>
<path style=" stroke:none;fill-rule:nonzero;fill:rgb(0%,0%,85.998535%);fill-opacity:1;" d="M 154.269531 15.949219 C 154.386719 15.949219 154.511719 15.960938 154.589844 15.988281 L 154.589844 14.726562 C 154.371094 14.675781 154.015625 14.625 153.710938 14.625 C 152.320312 14.625 151.570312 15.324219 151.570312 16.738281 L 151.570312 17.324219 L 150.5 17.324219 L 150.5 18.648438 L 151.570312 18.648438 L 151.570312 23.792969 L 153.328125 23.792969 L 153.328125 18.648438 L 154.550781 18.648438 L 154.550781 17.324219 L 153.328125 17.324219 L 153.328125 16.953125 C 153.328125 16.214844 153.644531 15.949219 154.269531 15.949219 "/>
<path style=" stroke:none;fill-rule:nonzero;fill:rgb(0%,0%,85.998535%);fill-opacity:1;" d="M 158.515625 17.121094 C 156.492188 17.121094 155.207031 18.457031 155.207031 20.558594 C 155.207031 22.660156 156.492188 24 158.515625 24 C 160.542969 24 161.828125 22.660156 161.828125 20.558594 C 161.828125 18.457031 160.542969 17.121094 158.515625 17.121094 Z M 158.515625 18.496094 C 159.394531 18.496094 159.957031 19.296875 159.957031 20.558594 C 159.957031 21.820312 159.394531 22.625 158.515625 22.625 C 157.636719 22.625 157.078125 21.820312 157.078125 20.558594 C 157.078125 19.296875 157.636719 18.496094 158.515625 18.496094 "/>
<path style=" stroke:none;fill-rule:nonzero;fill:rgb(0%,0%,85.998535%);fill-opacity:1;" d="M 166.8125 17.222656 C 166.050781 17.222656 165.476562 17.539062 165.042969 18.242188 L 165.019531 18.242188 L 165.019531 17.324219 L 163.375 17.324219 L 163.375 23.792969 L 165.160156 23.792969 L 165.160156 20.738281 C 165.160156 19.464844 165.746094 18.777344 166.839844 18.777344 C 167.019531 18.777344 167.195312 18.800781 167.398438 18.839844 L 167.398438 17.296875 C 167.222656 17.246094 166.992188 17.222656 166.8125 17.222656 "/>
<path style=" stroke:none;fill-rule:nonzero;fill:rgb(0%,0%,85.998535%);fill-opacity:1;" d="M 108.554688 38.949219 L 108.554688 29.878906 L 106.683594 29.878906 L 106.683594 38.949219 Z M 108.554688 38.949219 "/>
<path style=" stroke:none;fill-rule:nonzero;fill:rgb(0%,0%,85.998535%);fill-opacity:1;" d="M 114.292969 32.324219 C 113.464844 32.324219 112.8125 32.71875 112.394531 33.292969 L 112.367188 33.292969 L 112.367188 32.480469 L 110.699219 32.480469 L 110.699219 38.949219 L 112.484375 38.949219 L 112.484375 35.484375 C 112.484375 34.3125 113.019531 33.726562 113.757812 33.726562 C 114.457031 33.726562 114.890625 34.171875 114.890625 35.152344 L 114.890625 38.949219 L 116.671875 38.949219 L 116.671875 34.976562 C 116.671875 33.21875 115.742188 32.324219 114.292969 32.324219 "/>
<path style=" stroke:none;fill-rule:nonzero;fill:rgb(0%,0%,85.998535%);fill-opacity:1;" d="M 121.507812 31.101562 C 121.621094 31.101562 121.75 31.117188 121.824219 31.140625 L 121.824219 29.878906 C 121.609375 29.828125 121.253906 29.777344 120.945312 29.777344 C 119.558594 29.777344 118.804688 30.480469 118.804688 31.894531 L 118.804688 32.480469 L 117.734375 32.480469 L 117.734375 33.804688 L 118.804688 33.804688 L 118.804688 38.949219 L 120.5625 38.949219 L 120.5625 33.804688 L 121.785156 33.804688 L 121.785156 32.480469 L 120.5625 32.480469 L 120.5625 32.109375 C 120.5625 31.371094 120.882812 31.101562 121.507812 31.101562 "/>
<path style=" stroke:none;fill-rule:nonzero;fill:rgb(0%,0%,85.998535%);fill-opacity:1;" d="M 125.753906 32.273438 C 123.726562 32.273438 122.441406 33.613281 122.441406 35.714844 C 122.441406 37.816406 123.726562 39.152344 125.753906 39.152344 C 127.777344 39.152344 129.066406 37.816406 129.066406 35.714844 C 129.066406 33.613281 127.777344 32.273438 125.753906 32.273438 Z M 125.753906 33.652344 C 126.632812 33.652344 127.191406 34.453125 127.191406 35.714844 C 127.191406 36.976562 126.632812 37.777344 125.753906 37.777344 C 124.875 37.777344 124.3125 36.976562 124.3125 35.714844 C 124.3125 34.453125 124.875 33.652344 125.753906 33.652344 "/>
<path style=" stroke:none;fill-rule:nonzero;fill:rgb(0%,0%,85.998535%);fill-opacity:1;" d="M 134.050781 32.375 C 133.285156 32.375 132.714844 32.695312 132.28125 33.394531 L 132.253906 33.394531 L 132.253906 32.480469 L 130.613281 32.480469 L 130.613281 38.949219 L 132.394531 38.949219 L 132.394531 35.890625 C 132.394531 34.617188 132.980469 33.929688 134.078125 33.929688 C 134.253906 33.929688 134.433594 33.957031 134.636719 33.996094 L 134.636719 32.453125 C 134.457031 32.402344 134.230469 32.375 134.050781 32.375 "/>
<path style=" stroke:none;fill-rule:nonzero;fill:rgb(0%,0%,85.998535%);fill-opacity:1;" d="M 143.328125 32.324219 C 142.335938 32.324219 141.75 32.746094 141.265625 33.433594 C 140.910156 32.707031 140.246094 32.324219 139.34375 32.324219 C 138.566406 32.324219 138.015625 32.605469 137.546875 33.21875 L 137.519531 33.21875 L 137.519531 32.480469 L 135.839844 32.480469 L 135.839844 38.949219 L 137.621094 38.949219 L 137.621094 35.625 C 137.621094 34.414062 138.03125 33.726562 138.808594 33.726562 C 139.46875 33.726562 139.828125 34.210938 139.828125 35.039062 L 139.828125 38.949219 L 141.609375 38.949219 L 141.609375 35.625 C 141.609375 34.402344 142.03125 33.726562 142.792969 33.726562 C 143.417969 33.726562 143.8125 34.171875 143.8125 35.152344 L 143.8125 38.949219 L 145.597656 38.949219 L 145.597656 34.976562 C 145.597656 33.21875 144.71875 32.324219 143.328125 32.324219 "/>
<path style=" stroke:none;fill-rule:nonzero;fill:rgb(0%,0%,85.998535%);fill-opacity:1;" d="M 150.035156 32.273438 C 148.1875 32.273438 147.296875 33.269531 147.230469 34.503906 L 148.964844 34.503906 C 148.988281 33.890625 149.371094 33.523438 150.035156 33.523438 C 150.660156 33.523438 151.089844 33.855469 151.089844 34.667969 L 151.089844 34.898438 C 150.683594 34.925781 149.957031 35 149.472656 35.078125 C 147.601562 35.371094 146.964844 36.082031 146.964844 37.140625 C 146.964844 38.261719 147.792969 39.101562 149.167969 39.101562 C 150.058594 39.101562 150.785156 38.769531 151.269531 38.082031 L 151.296875 38.082031 C 151.296875 38.402344 151.320312 38.683594 151.382812 38.949219 L 152.988281 38.949219 C 152.875 38.515625 152.8125 37.996094 152.8125 37.179688 L 152.8125 34.835938 C 152.8125 33.140625 151.867188 32.273438 150.035156 32.273438 Z M 151.089844 36.222656 C 151.089844 36.808594 151.027344 37.152344 150.722656 37.460938 C 150.46875 37.714844 150.074219 37.828125 149.703125 37.828125 C 149.078125 37.828125 148.746094 37.496094 148.746094 37.011719 C 148.746094 36.492188 149.054688 36.25 149.792969 36.121094 C 150.175781 36.058594 150.710938 36.007812 151.089844 35.980469 Z M 151.089844 36.222656 "/>
<path style=" stroke:none;fill-rule:nonzero;fill:rgb(0%,0%,85.998535%);fill-opacity:1;" d="M 157.476562 37.613281 C 156.867188 37.613281 156.636719 37.332031 156.636719 36.617188 L 156.636719 33.804688 L 157.875 33.804688 L 157.875 32.480469 L 156.636719 32.480469 L 156.636719 30.796875 L 154.855469 30.796875 L 154.855469 32.480469 L 153.808594 32.480469 L 153.808594 33.804688 L 154.855469 33.804688 L 154.855469 36.9375 C 154.855469 38.441406 155.503906 39.039062 156.996094 39.039062 C 157.300781 39.039062 157.695312 38.988281 157.9375 38.910156 L 157.9375 37.546875 C 157.824219 37.585938 157.644531 37.613281 157.476562 37.613281 "/>
<path style=" stroke:none;fill-rule:nonzero;fill:rgb(0%,0%,85.998535%);fill-opacity:1;" d="M 161.140625 31.410156 L 161.140625 29.878906 L 159.355469 29.878906 L 159.355469 31.410156 Z M 161.140625 38.949219 L 161.140625 32.480469 L 159.355469 32.480469 L 159.355469 38.949219 Z M 161.140625 38.949219 "/>
<path style=" stroke:none;fill-rule:nonzero;fill:rgb(0%,0%,85.998535%);fill-opacity:1;" d="M 165.996094 32.273438 C 163.972656 32.273438 162.6875 33.613281 162.6875 35.714844 C 162.6875 37.816406 163.972656 39.152344 165.996094 39.152344 C 168.023438 39.152344 169.308594 37.816406 169.308594 35.714844 C 169.308594 33.613281 168.023438 32.273438 165.996094 32.273438 Z M 165.996094 33.652344 C 166.875 33.652344 167.4375 34.453125 167.4375 35.714844 C 167.4375 36.976562 166.875 37.777344 165.996094 37.777344 C 165.117188 37.777344 164.558594 36.976562 164.558594 35.714844 C 164.558594 34.453125 165.117188 33.652344 165.996094 33.652344 "/>
<path style=" stroke:none;fill-rule:nonzero;fill:rgb(0%,0%,85.998535%);fill-opacity:1;" d="M 174.449219 32.324219 C 173.621094 32.324219 172.96875 32.71875 172.550781 33.292969 L 172.523438 33.292969 L 172.523438 32.480469 L 170.855469 32.480469 L 170.855469 38.949219 L 172.640625 38.949219 L 172.640625 35.484375 C 172.640625 34.3125 173.175781 33.726562 173.914062 33.726562 C 174.613281 33.726562 175.046875 34.171875 175.046875 35.152344 L 175.046875 38.949219 L 176.828125 38.949219 L 176.828125 34.976562 C 176.828125 33.21875 175.898438 32.324219 174.449219 32.324219 "/>
<path style=" stroke:none;fill-rule:nonzero;fill:rgb(0%,0%,85.998535%);fill-opacity:1;" d="M 113.34375 46.640625 L 113.34375 45.035156 L 105.765625 45.035156 L 105.765625 46.640625 L 108.617188 46.640625 L 108.617188 54.105469 L 110.492188 54.105469 L 110.492188 46.640625 Z M 113.34375 46.640625 "/>
<path style=" stroke:none;fill-rule:nonzero;fill:rgb(0%,0%,85.998535%);fill-opacity:1;" d="M 116.101562 53.046875 C 115.335938 53.046875 114.6875 52.574219 114.636719 51.238281 L 119.285156 51.238281 C 119.285156 50.523438 119.222656 50.027344 119.082031 49.582031 C 118.671875 48.269531 117.578125 47.429688 116.085938 47.429688 C 114.0625 47.429688 112.878906 48.90625 112.878906 50.816406 C 112.878906 52.882812 114.0625 54.308594 116.101562 54.308594 C 117.820312 54.308594 118.941406 53.328125 119.195312 52.140625 L 117.375 52.140625 C 117.285156 52.664062 116.8125 53.046875 116.101562 53.046875 Z M 116.085938 48.691406 C 116.800781 48.691406 117.386719 49.136719 117.5 50.117188 L 114.675781 50.117188 C 114.8125 49.136719 115.363281 48.691406 116.085938 48.691406 "/>
<path style=" stroke:none;fill-rule:nonzero;fill:rgb(0%,0%,85.998535%);fill-opacity:1;" d="M 123.800781 47.429688 C 121.824219 47.429688 120.539062 48.78125 120.539062 50.867188 C 120.539062 52.957031 121.824219 54.308594 123.800781 54.308594 C 125.542969 54.308594 126.714844 53.210938 126.855469 51.570312 L 124.984375 51.570312 C 124.933594 52.410156 124.472656 52.933594 123.785156 52.933594 C 122.921875 52.933594 122.398438 52.140625 122.398438 50.867188 C 122.398438 49.59375 122.921875 48.804688 123.785156 48.804688 C 124.472656 48.804688 124.933594 49.277344 124.996094 50.039062 L 126.855469 50.039062 C 126.714844 48.523438 125.542969 47.429688 123.800781 47.429688 "/>
<path style=" stroke:none;fill-rule:nonzero;fill:rgb(0%,0%,85.998535%);fill-opacity:1;" d="M 130.136719 48.347656 L 130.136719 45.035156 L 128.351562 45.035156 L 128.351562 54.105469 L 130.136719 54.105469 L 130.136719 50.640625 C 130.136719 49.453125 130.667969 48.882812 131.410156 48.882812 C 132.109375 48.882812 132.542969 49.328125 132.542969 50.308594 L 132.542969 54.105469 L 134.324219 54.105469 L 134.324219 50.128906 C 134.324219 48.371094 133.394531 47.480469 131.945312 47.480469 C 131.253906 47.480469 130.617188 47.761719 130.160156 48.347656 Z M 130.136719 48.347656 "/>
<path style=" stroke:none;fill-rule:nonzero;fill:rgb(0%,0%,85.998535%);fill-opacity:1;" d="M 139.820312 47.480469 C 138.992188 47.480469 138.34375 47.875 137.921875 48.449219 L 137.898438 48.449219 L 137.898438 47.632812 L 136.230469 47.632812 L 136.230469 54.105469 L 138.011719 54.105469 L 138.011719 50.640625 C 138.011719 49.46875 138.546875 48.882812 139.285156 48.882812 C 139.988281 48.882812 140.417969 49.328125 140.417969 50.308594 L 140.417969 54.105469 L 142.203125 54.105469 L 142.203125 50.128906 C 142.203125 48.371094 141.273438 47.480469 139.820312 47.480469 "/>
<path style=" stroke:none;fill-rule:nonzero;fill:rgb(0%,0%,85.998535%);fill-opacity:1;" d="M 146.996094 47.429688 C 144.972656 47.429688 143.6875 48.765625 143.6875 50.867188 C 143.6875 52.96875 144.972656 54.308594 146.996094 54.308594 C 149.023438 54.308594 150.308594 52.96875 150.308594 50.867188 C 150.308594 48.765625 149.023438 47.429688 146.996094 47.429688 Z M 146.996094 48.804688 C 147.875 48.804688 148.4375 49.609375 148.4375 50.867188 C 148.4375 52.128906 147.875 52.933594 146.996094 52.933594 C 146.117188 52.933594 145.558594 52.128906 145.558594 50.867188 C 145.558594 49.609375 146.117188 48.804688 146.996094 48.804688 "/>
<path style=" stroke:none;fill-rule:nonzero;fill:rgb(0%,0%,85.998535%);fill-opacity:1;" d="M 153.640625 54.105469 L 153.640625 45.035156 L 151.855469 45.035156 L 151.855469 54.105469 Z M 153.640625 54.105469 "/>
<path style=" stroke:none;fill-rule:nonzero;fill:rgb(0%,0%,85.998535%);fill-opacity:1;" d="M 158.496094 47.429688 C 156.472656 47.429688 155.183594 48.765625 155.183594 50.867188 C 155.183594 52.96875 156.472656 54.308594 158.496094 54.308594 C 160.523438 54.308594 161.808594 52.96875 161.808594 50.867188 C 161.808594 48.765625 160.523438 47.429688 158.496094 47.429688 Z M 158.496094 48.804688 C 159.375 48.804688 159.9375 49.609375 159.9375 50.867188 C 159.9375 52.128906 159.375 52.933594 158.496094 52.933594 C 157.617188 52.933594 157.058594 52.128906 157.058594 50.867188 C 157.058594 49.609375 157.617188 48.804688 158.496094 48.804688 "/>
<path style=" stroke:none;fill-rule:nonzero;fill:rgb(0%,0%,85.998535%);fill-opacity:1;" d="M 165.738281 47.453125 C 164.105469 47.453125 163.0625 48.730469 163.0625 50.742188 C 163.0625 52.753906 164.09375 54.027344 165.710938 54.027344 C 166.488281 54.027344 167.035156 53.734375 167.519531 53.058594 L 167.546875 53.058594 L 167.546875 53.632812 C 167.546875 54.894531 167.050781 55.300781 166.246094 55.300781 C 165.570312 55.300781 165.164062 55.007812 165.125 54.511719 L 163.34375 54.511719 C 163.445312 55.785156 164.425781 56.574219 166.207031 56.574219 C 168.066406 56.574219 169.277344 55.65625 169.277344 53.695312 L 169.277344 47.632812 L 167.597656 47.632812 L 167.597656 48.5 L 167.570312 48.5 C 167.074219 47.761719 166.527344 47.453125 165.738281 47.453125 Z M 166.222656 48.917969 C 167.0625 48.917969 167.597656 49.644531 167.597656 50.742188 C 167.597656 51.835938 167.0625 52.5625 166.222656 52.5625 C 165.429688 52.5625 164.921875 51.863281 164.921875 50.742188 C 164.921875 49.621094 165.429688 48.917969 166.222656 48.917969 "/>
<path style=" stroke:none;fill-rule:nonzero;fill:rgb(0%,0%,85.998535%);fill-opacity:1;" d="M 173.027344 46.5625 L 173.027344 45.035156 L 171.246094 45.035156 L 171.246094 46.5625 Z M 173.027344 54.105469 L 173.027344 47.632812 L 171.246094 47.632812 L 171.246094 54.105469 Z M 173.027344 54.105469 "/>
<path style=" stroke:none;fill-rule:nonzero;fill:rgb(0%,0%,85.998535%);fill-opacity:1;" d="M 177.796875 53.046875 C 177.03125 53.046875 176.382812 52.574219 176.332031 51.238281 L 180.980469 51.238281 C 180.980469 50.523438 180.917969 50.027344 180.777344 49.582031 C 180.371094 48.269531 179.273438 47.429688 177.785156 47.429688 C 175.757812 47.429688 174.574219 48.90625 174.574219 50.816406 C 174.574219 52.882812 175.757812 54.308594 177.796875 54.308594 C 179.515625 54.308594 180.636719 53.328125 180.890625 52.140625 L 179.070312 52.140625 C 178.980469 52.664062 178.511719 53.046875 177.796875 53.046875 Z M 177.785156 48.691406 C 178.496094 48.691406 179.082031 49.136719 179.199219 50.117188 L 176.371094 50.117188 C 176.511719 49.136719 177.058594 48.691406 177.785156 48.691406 "/>
<path style=" stroke:none;fill-rule:nonzero;fill:rgb(0%,0%,85.998535%);fill-opacity:1;" d="M 184.988281 47.429688 C 183.382812 47.429688 182.3125 48.257812 182.3125 49.417969 C 182.3125 50.917969 183.46875 51.175781 184.554688 51.453125 C 185.558594 51.722656 186.042969 51.835938 186.042969 52.398438 C 186.042969 52.78125 185.726562 53.019531 185.101562 53.019531 C 184.363281 53.019531 183.96875 52.652344 183.96875 52.003906 L 182.160156 52.003906 C 182.160156 53.570312 183.265625 54.308594 185.0625 54.308594 C 186.820312 54.308594 187.914062 53.492188 187.914062 52.28125 C 187.914062 50.703125 186.640625 50.410156 185.484375 50.105469 C 184.503906 49.847656 184.09375 49.734375 184.09375 49.277344 C 184.09375 48.90625 184.398438 48.675781 184.972656 48.675781 C 185.609375 48.675781 185.992188 48.957031 185.992188 49.621094 L 187.699219 49.621094 C 187.699219 48.179688 186.679688 47.429688 184.988281 47.429688 "/>
</g>
</svg>
