<?xml version="1.0" encoding="UTF-8" standalone="no"?>
<!DOCTYPE svg PUBLIC "-//W3C//DTD SVG 1.1//EN" "http://www.w3.org/Graphics/SVG/1.1/DTD/svg11.dtd">
<svg width="245" height="68" viewBox="0 0 245 68" version="1.1" xmlns="http://www.w3.org/2000/svg" xmlns:xlink="http://www.w3.org/1999/xlink"><path fill="#0000dc" d="M-0.06,3l0,26.6l4.14,0l0,-26.6zm4.29,0l2.59,26.6l1.4,0l-2.58,-26.6zm6.73,0l-2.58,26.6l1.4,0l2.59,-26.6zm1.56,0l0,26.6l4.18,0l0,-26.6zm15.69,0l0,20.48c0,3.57,3.23,6.35,6.69,6.35c3.46,0,6.69,-2.78,6.69,-6.35l0,-20.48l-4.18,0l0,20.33c0,1.44,-1.29,2.47,-2.51,2.47c-1.22,0,-2.51,-1.03,-2.51,-2.47l0,-20.33zm26.26,0l0,26.6l4.18,0l0,-26.6zm4.33,0l3.95,26.6l1.45,0l-3.95,-26.6zm5.55,0l0,26.6l4.18,0l0,-26.6zm18.05,25.12l0,1.48l11.36,0l0,-1.48l-3.61,0l0,-23.64l3.61,0l0,-1.48l-11.36,0l0,1.48l3.57,0l0,23.64z"></path><path fill="#0000dc" d="M6.21,41.5l-5.74,26.6l2.13,0l1.79,-8.4l7.75,0l1.82,8.4l2.13,0l-5.66,-26.6l-2.05,0l3.42,16.3l-7.07,0l3.49,-16.3zm22.72,0l0,26.6l2.06,0l0,-11.25l3.45,0l6.31,11.25l2.36,0l-6.5,-11.48c3.12,-0.26,5.59,-2.88,5.59,-6.11l0,-2.66c0,-3.46,-2.89,-6.35,-6.35,-6.35zm6.73,13.41l-4.67,0l0,-11.51l4.67,0c2.43,0,4.52,1.98,4.52,4.48l0,2.4c0,2.73,-1.97,4.63,-4.52,4.63zm24.81,-11.51l0,24.7l2.06,0l0,-24.7l7.1,0l0,-1.9l-16.26,0l0,1.9zm27.63,24.93c3.65,0,6.57,-2.59,6.57,-6.35l0,-1.63c0,-4.33,-3.64,-5.82,-6.15,-6.39c-2.32,-0.53,-4.94,-1.4,-4.94,-4.52l0,-1.78c0,-2.47,2.13,-4.41,4.52,-4.41c2.36,0,4.52,1.94,4.52,4.41l0,0.95l2.05,0l0,-0.99c0,-3.65,-2.92,-6.35,-6.57,-6.35c-3.65,0,-6.57,2.7,-6.57,6.35l0,1.82c0,4.45,3.76,5.85,6.08,6.39c2.43,0.53,5.01,1.4,5.01,4.56l0,1.55c0,2.47,-2.13,4.41,-4.48,4.41c-2.4,0,-4.56,-1.94,-4.56,-4.41l0,-0.87l-2.05,0l0,0.91c0,3.76,2.92,6.35,6.57,6.35z"></path><path fill="#0000dc" d="M111.23,3.01l0,10.68l3.55,0c3.63,0,5.67,-1.92,5.67,-5.34c0,-3.42,-2.04,-5.34,-5.67,-5.34zm2.19,1.89l1.33,0c2.3,0,3.42,1.14,3.42,3.45c0,2.31,-1.12,3.45,-3.42,3.45l-1.33,0zm12,7.54c-0.9,0,-1.66,-0.55,-1.72,-2.13l5.47,0c0,-0.84,-0.08,-1.42,-0.24,-1.95c-0.48,-1.54,-1.77,-2.53,-3.52,-2.53c-2.39,0,-3.78,1.74,-3.78,3.99c0,2.43,1.39,4.11,3.79,4.11c2.03,0,3.35,-1.16,3.64,-2.55l-2.14,0c-0.1,0.61,-0.66,1.06,-1.5,1.06zm-0.01,-5.13c0.84,0,1.53,0.53,1.66,1.68l-3.33,0c0.17,-1.15,0.81,-1.68,1.67,-1.68zm9.56,-1.44c-0.88,0,-1.72,0.42,-2.19,1.2l-0.03,0l0,-1l-2.03,0l0,10.39l2.09,0l0,-3.69l0.03,0c0.47,0.72,1.29,1.11,2.16,1.11c1.91,0,3.14,-1.57,3.14,-4c0,-2.43,-1.25,-4.01,-3.17,-4.01zm-0.67,1.61c1.01,0,1.65,0.94,1.65,2.4c0,1.45,-0.64,2.4,-1.65,2.4c-0.95,0,-1.59,-0.89,-1.59,-2.4c0,-1.52,0.64,-2.4,1.59,-2.4zm8.37,-1.65c-2.17,0,-3.23,1.17,-3.3,2.62l2.04,0c0.03,-0.72,0.48,-1.15,1.26,-1.15c0.74,0,1.24,0.39,1.24,1.35l0,0.27c-0.47,0.03,-1.33,0.12,-1.9,0.21c-2.21,0.34,-2.96,1.18,-2.96,2.43c0,1.32,0.98,2.31,2.6,2.31c1.05,0,1.9,-0.39,2.48,-1.2l0.03,0c0,0.37,0.03,0.7,0.1,1.02l1.89,0c-0.14,-0.51,-0.21,-1.13,-0.21,-2.09l0,-2.76c0,-1.99,-1.11,-3.01,-3.27,-3.01zm1.24,4.65c0,0.69,-0.07,1.09,-0.43,1.45c-0.3,0.3,-0.76,0.44,-1.2,0.44c-0.74,0,-1.12,-0.39,-1.12,-0.96c0,-0.62,0.35,-0.9,1.22,-1.05c0.45,-0.08,1.09,-0.14,1.53,-0.17zm8.03,-4.53c-0.9,0,-1.57,0.37,-2.08,1.2l-0.03,0l0,-1.08l-1.94,0l0,7.62l2.1,0l0,-3.6c0,-1.5,0.69,-2.31,1.98,-2.31c0.21,0,0.42,0.03,0.66,0.07l0,-1.81c-0.21,-0.06,-0.48,-0.09,-0.69,-0.09zm5.43,6.16c-0.72,0,-0.99,-0.33,-0.99,-1.17l0,-3.31l1.46,0l0,-1.56l-1.46,0l0,-1.98l-2.1,0l0,1.98l-1.23,0l0,1.56l1.23,0l0,3.69c0,1.77,0.77,2.47,2.52,2.47c0.36,0,0.83,-0.06,1.11,-0.15l0,-1.6c-0.13,0.04,-0.35,0.07,-0.54,0.07zm10.76,-6.22c-1.18,0,-1.87,0.49,-2.44,1.3c-0.41,-0.85,-1.19,-1.3,-2.26,-1.3c-0.92,0,-1.56,0.33,-2.12,1.05l-0.03,0l0,-0.87l-1.97,0l0,7.62l2.1,0l0,-3.92c0,-1.42,0.47,-2.23,1.39,-2.23c0.78,0,1.2,0.57,1.2,1.54l0,4.61l2.1,0l0,-3.92c0,-1.44,0.49,-2.23,1.4,-2.23c0.73,0,1.19,0.52,1.19,1.68l0,4.47l2.1,0l0,-4.68c0,-2.07,-1.03,-3.12,-2.66,-3.12zm7.93,6.55c-0.9,0,-1.66,-0.55,-1.72,-2.13l5.47,0c0,-0.84,-0.07,-1.42,-0.24,-1.95c-0.48,-1.54,-1.77,-2.53,-3.52,-2.53c-2.39,0,-3.78,1.74,-3.78,3.99c0,2.43,1.39,4.11,3.79,4.11c2.03,0,3.35,-1.16,3.65,-2.55l-2.15,0c-0.1,0.61,-0.66,1.06,-1.5,1.06zm-0.01,-5.13c0.84,0,1.53,0.53,1.66,1.68l-3.33,0c0.17,-1.15,0.81,-1.68,1.67,-1.68zm9.54,-1.42c-0.98,0,-1.75,0.46,-2.24,1.14l-0.03,0l0,-0.96l-1.96,0l0,7.62l2.1,0l0,-4.08c0,-1.38,0.63,-2.07,1.5,-2.07c0.82,0,1.33,0.52,1.33,1.68l0,4.47l2.1,0l0,-4.68c0,-2.07,-1.09,-3.12,-2.8,-3.12zm8.1,6.22c-0.72,0,-1,-0.33,-1,-1.17l0,-3.31l1.46,0l0,-1.56l-1.46,0l0,-1.98l-2.1,0l0,1.98l-1.22,0l0,1.56l1.22,0l0,3.69c0,1.77,0.77,2.47,2.53,2.47c0.35,0,0.82,-0.06,1.1,-0.15l0,-1.6c-0.13,0.04,-0.34,0.07,-0.53,0.07z"></path><path fill="#0000dc" d="M114.42,23.83c-2.38,0,-3.89,1.57,-3.89,4.05c0,2.47,1.51,4.05,3.89,4.05c2.39,0,3.91,-1.58,3.91,-4.05c0,-2.48,-1.52,-4.05,-3.91,-4.05zm0,1.62c1.04,0,1.7,0.94,1.7,2.43c0,1.48,-0.66,2.43,-1.7,2.43c-1.03,0,-1.69,-0.95,-1.69,-2.43c0,-1.49,0.66,-2.43,1.69,-2.43zm9.02,-3c0.13,0,0.28,0.01,0.37,0.04l0,-1.48c-0.25,-0.06,-0.67,-0.12,-1.03,-0.12c-1.64,0,-2.52,0.82,-2.52,2.49l0,0.69l-1.26,0l0,1.56l1.26,0l0,6.06l2.07,0l0,-6.06l1.44,0l0,-1.56l-1.44,0l0,-0.44c0,-0.86,0.37,-1.18,1.11,-1.18zm7.41,9.24l0,-10.68l-2.21,0l0,10.68zm6.48,-7.8c-0.98,0,-1.74,0.46,-2.24,1.14l-0.03,0l0,-0.96l-1.96,0l0,7.62l2.1,0l0,-4.08c0,-1.38,0.63,-2.07,1.5,-2.07c0.82,0,1.33,0.52,1.33,1.68l0,4.47l2.1,0l0,-4.68c0,-2.07,-1.09,-3.12,-2.8,-3.12zm8.22,-1.44c0.13,0,0.28,0.01,0.37,0.04l0,-1.48c-0.25,-0.06,-0.67,-0.12,-1.03,-0.12c-1.64,0,-2.52,0.82,-2.52,2.49l0,0.69l-1.26,0l0,1.56l1.26,0l0,6.06l2.07,0l0,-6.06l1.44,0l0,-1.56l-1.44,0l0,-0.44c0,-0.86,0.37,-1.18,1.11,-1.18zm4.73,1.38c-2.39,0,-3.9,1.57,-3.9,4.05c0,2.47,1.51,4.05,3.9,4.05c2.38,0,3.89,-1.58,3.89,-4.05c0,-2.48,-1.51,-4.05,-3.89,-4.05zm0,1.62c1.03,0,1.69,0.94,1.69,2.43c0,1.48,-0.66,2.43,-1.69,2.43c-1.04,0,-1.7,-0.95,-1.7,-2.43c0,-1.49,0.66,-2.43,1.7,-2.43zm9.49,-1.5c-0.9,0,-1.58,0.37,-2.08,1.2l-0.03,0l0,-1.08l-1.94,0l0,7.62l2.1,0l0,-3.6c0,-1.5,0.69,-2.31,1.98,-2.31c0.21,0,0.42,0.03,0.66,0.07l0,-1.81c-0.21,-0.06,-0.48,-0.09,-0.69,-0.09zm10.65,-0.06c-1.17,0,-1.86,0.49,-2.43,1.3c-0.42,-0.85,-1.2,-1.3,-2.27,-1.3c-0.91,0,-1.56,0.33,-2.11,1.05l-0.03,0l0,-0.87l-1.98,0l0,7.62l2.1,0l0,-3.92c0,-1.42,0.48,-2.23,1.39,-2.23c0.78,0,1.2,0.57,1.2,1.54l0,4.61l2.1,0l0,-3.92c0,-1.44,0.5,-2.23,1.4,-2.23c0.73,0,1.2,0.52,1.2,1.68l0,4.47l2.1,0l0,-4.68c0,-2.07,-1.04,-3.12,-2.67,-3.12zm7.62,-0.06c-2.17,0,-3.23,1.17,-3.3,2.62l2.04,0c0.03,-0.72,0.48,-1.15,1.26,-1.15c0.74,0,1.24,0.39,1.24,1.35l0,0.27c-0.47,0.03,-1.33,0.12,-1.9,0.21c-2.21,0.34,-2.96,1.18,-2.96,2.43c0,1.32,0.98,2.31,2.6,2.31c1.05,0,1.9,-0.39,2.48,-1.2l0.03,0c0,0.37,0.03,0.7,0.1,1.02l1.89,0c-0.14,-0.51,-0.21,-1.13,-0.21,-2.09l0,-2.76c0,-1.99,-1.11,-3.01,-3.27,-3.01zm1.24,4.65c0,0.69,-0.07,1.09,-0.43,1.45c-0.3,0.3,-0.76,0.44,-1.2,0.44c-0.74,0,-1.12,-0.39,-1.12,-0.96c0,-0.62,0.35,-0.9,1.22,-1.05c0.45,-0.08,1.09,-0.14,1.53,-0.17zm7.25,1.63c-0.72,0,-0.99,-0.33,-0.99,-1.17l0,-3.31l1.46,0l0,-1.56l-1.46,0l0,-1.98l-2.1,0l0,1.98l-1.23,0l0,1.56l1.23,0l0,3.69c0,1.77,0.77,2.47,2.52,2.47c0.36,0,0.82,-0.06,1.11,-0.15l0,-1.6c-0.13,0.04,-0.35,0.07,-0.54,0.07zm4.03,-7.3l0,-1.8l-2.09,0l0,1.8zm0,8.88l0,-7.62l-2.09,0l0,7.62zm5.45,-7.86c-2.39,0,-3.9,1.57,-3.9,4.05c0,2.47,1.51,4.05,3.9,4.05c2.38,0,3.9,-1.58,3.9,-4.05c0,-2.48,-1.52,-4.05,-3.9,-4.05zm0,1.62c1.03,0,1.69,0.94,1.69,2.43c0,1.48,-0.66,2.43,-1.69,2.43c-1.04,0,-1.7,-0.95,-1.7,-2.43c0,-1.49,0.66,-2.43,1.7,-2.43zm9.67,-1.56c-0.97,0,-1.74,0.46,-2.23,1.14l-0.03,0l0,-0.96l-1.97,0l0,7.62l2.1,0l0,-4.08c0,-1.38,0.63,-2.07,1.5,-2.07c0.83,0,1.34,0.52,1.34,1.68l0,4.47l2.1,0l0,-4.68c0,-2.07,-1.1,-3.12,-2.81,-3.12z"></path><path fill="#0000dc" d="M114,41.83c-2.17,0,-3.22,1.17,-3.3,2.62l2.05,0c0.03,-0.72,0.47,-1.15,1.25,-1.15c0.74,0,1.25,0.39,1.25,1.35l0,0.27c-0.48,0.03,-1.33,0.12,-1.91,0.21c-2.2,0.34,-2.95,1.18,-2.95,2.43c0,1.32,0.97,2.31,2.59,2.31c1.05,0,1.91,-0.39,2.48,-1.2l0.03,0c0,0.37,0.03,0.71,0.1,1.02l1.89,0c-0.13,-0.51,-0.2,-1.13,-0.2,-2.09l0,-2.76c0,-1.99,-1.11,-3.01,-3.28,-3.01zm1.25,4.65c0,0.69,-0.08,1.09,-0.44,1.45c-0.29,0.3,-0.76,0.44,-1.2,0.44c-0.73,0,-1.12,-0.39,-1.12,-0.96c0,-0.62,0.36,-0.9,1.23,-1.05c0.45,-0.08,1.08,-0.14,1.53,-0.16zm8.2,-4.59c-0.97,0,-1.73,0.46,-2.23,1.14l-0.03,0l0,-0.96l-1.97,0l0,7.62l2.11,0l0,-4.08c0,-1.38,0.62,-2.07,1.5,-2.07c0.82,0,1.33,0.52,1.33,1.68l0,4.47l2.1,0l0,-4.68c0,-2.07,-1.1,-3.12,-2.81,-3.12zm11.71,7.8l0,-10.68l-2.1,0l0,3.97l-0.03,0c-0.47,-0.71,-1.3,-1.1,-2.16,-1.1c-1.91,0,-3.14,1.57,-3.14,4c0,2.43,1.24,4,3.17,4c0.88,0,1.72,-0.42,2.19,-1.2l0.03,0l0,1.01zm-3.59,-6.21c0.94,0,1.59,0.88,1.59,2.4c0,1.51,-0.65,2.4,-1.59,2.4c-1.01,0,-1.65,-0.94,-1.65,-2.4c0,-1.46,0.64,-2.4,1.65,-2.4zm11.49,4.32l0,-8.79l-2.21,0l0,10.68l7.25,0l0,-1.89zm8.31,-6.99l0,-1.8l-2.1,0l0,1.8zm0,8.88l0,-7.62l-2.1,0l0,7.62zm4.14,-6.71l0,-3.97l-2.1,0l0,10.68l2.04,0l0,-1.01l0.03,0c0.46,0.78,1.3,1.2,2.19,1.2c1.92,0,3.16,-1.57,3.16,-4c0,-2.43,-1.23,-4,-3.13,-4c-0.87,0,-1.7,0.39,-2.16,1.1zm1.48,0.5c1.01,0,1.65,0.94,1.65,2.4c0,1.46,-0.64,2.4,-1.65,2.4c-0.94,0,-1.59,-0.89,-1.59,-2.4c0,-1.52,0.65,-2.4,1.59,-2.4zm9.44,-1.53c-0.9,0,-1.58,0.37,-2.09,1.2l-0.03,0l0,-1.08l-1.93,0l0,7.62l2.1,0l0,-3.6c0,-1.5,0.69,-2.31,1.98,-2.31c0.21,0,0.42,0.03,0.66,0.07l0,-1.81c-0.21,-0.06,-0.48,-0.09,-0.69,-0.09zm4.54,-0.12c-2.17,0,-3.22,1.17,-3.3,2.62l2.04,0c0.03,-0.72,0.48,-1.15,1.26,-1.15c0.74,0,1.25,0.39,1.25,1.35l0,0.27c-0.48,0.03,-1.34,0.12,-1.91,0.21c-2.2,0.34,-2.95,1.18,-2.95,2.43c0,1.32,0.97,2.31,2.59,2.31c1.05,0,1.91,-0.39,2.48,-1.2l0.03,0c0,0.37,0.03,0.71,0.1,1.02l1.89,0c-0.13,-0.51,-0.21,-1.13,-0.21,-2.09l0,-2.76c0,-1.99,-1.11,-3.01,-3.27,-3.01zm1.25,4.65c0,0.69,-0.08,1.09,-0.44,1.45c-0.3,0.3,-0.76,0.44,-1.2,0.44c-0.73,0,-1.12,-0.39,-1.12,-0.96c0,-0.62,0.36,-0.9,1.23,-1.05c0.45,-0.08,1.08,-0.14,1.53,-0.16zm8.02,-4.53c-0.9,0,-1.57,0.37,-2.08,1.2l-0.03,0l0,-1.08l-1.94,0l0,7.62l2.1,0l0,-3.6c0,-1.5,0.69,-2.31,1.98,-2.31c0.21,0,0.42,0.03,0.66,0.07l0,-1.81c-0.21,-0.06,-0.48,-0.09,-0.69,-0.09zm8.48,0.12l-2.16,0l-0.83,2.55c-0.34,1.05,-0.63,2.13,-0.88,3.19l-0.03,0c-0.24,-1.06,-0.53,-2.14,-0.84,-3.19l-0.78,-2.55l-2.25,0l2.16,6.2c0.3,0.85,0.36,1.09,0.36,1.37c0,0.75,-0.56,1.24,-1.4,1.24c-0.31,0,-0.6,-0.05,-0.81,-0.13l0,1.68c0.32,0.08,0.72,0.12,1.1,0.12c1.9,0,2.86,-0.67,3.63,-2.82zm7.86,-3.3c-2.34,0,-3.95,1.29,-3.95,3.16c0,2.34,1.83,2.82,3.84,3.34c1.52,0.39,2.21,0.57,2.21,1.51c0,0.84,-0.72,1.36,-1.85,1.36c-1.36,0,-2.07,-0.67,-2.07,-1.96l-2.28,0c0,2.43,1.67,3.75,4.32,3.75c2.49,0,4.17,-1.35,4.17,-3.38c0,-2.32,-1.74,-2.85,-3.75,-3.34c-1.68,-0.42,-2.32,-0.69,-2.32,-1.51c0,-0.7,0.66,-1.18,1.63,-1.18c1.22,0,1.86,0.65,1.86,1.76l2.24,0c0,-2.3,-1.38,-3.51,-4.05,-3.51zm9.37,9.34c-0.72,0,-0.99,-0.33,-0.99,-1.16l0,-3.32l1.46,0l0,-1.56l-1.46,0l0,-1.98l-2.1,0l0,1.98l-1.23,0l0,1.56l1.23,0l0,3.69c0,1.77,0.77,2.47,2.52,2.47c0.36,0,0.83,-0.06,1.11,-0.15l0,-1.6c-0.13,0.05,-0.34,0.07,-0.54,0.07zm4.67,1.76c0.97,0,1.74,-0.46,2.23,-1.14l0.03,0l0,0.96l1.97,0l0,-7.62l-2.1,0l0,4.08c0,1.38,-0.63,2.07,-1.5,2.07c-0.83,0,-1.34,-0.52,-1.34,-1.68l0,-4.47l-2.1,0l0,4.68c0,2.07,1.1,3.12,2.81,3.12zm13.2,-0.18l0,-10.68l-2.1,0l0,3.97l-0.03,0c-0.47,-0.71,-1.29,-1.1,-2.16,-1.1c-1.91,0,-3.14,1.57,-3.14,4c0,2.43,1.25,4,3.17,4c0.88,0,1.72,-0.42,2.19,-1.2l0.03,0l0,1.01zm-3.59,-6.21c0.95,0,1.59,0.88,1.59,2.4c0,1.51,-0.64,2.4,-1.59,2.4c-1,0,-1.65,-0.94,-1.65,-2.4c0,-1.46,0.65,-2.4,1.65,-2.4zm7.73,-2.67l0,-1.8l-2.1,0l0,1.8zm0,8.88l0,-7.62l-2.1,0l0,7.62zm5.34,-1.24c-0.9,0,-1.67,-0.56,-1.73,-2.14l5.48,0c0,-0.84,-0.08,-1.42,-0.24,-1.95c-0.48,-1.54,-1.77,-2.53,-3.53,-2.53c-2.38,0,-3.78,1.74,-3.78,3.99c0,2.43,1.4,4.11,3.8,4.11c2.02,0,3.34,-1.16,3.64,-2.55l-2.14,0c-0.11,0.61,-0.66,1.07,-1.5,1.07zm-0.02,-5.14c0.84,0,1.53,0.53,1.67,1.68l-3.33,0c0.16,-1.15,0.81,-1.68,1.66,-1.68zm8.21,-1.48c-1.89,0,-3.15,0.97,-3.15,2.34c0,1.77,1.36,2.07,2.64,2.4c1.18,0.31,1.75,0.45,1.75,1.11c0,0.45,-0.37,0.73,-1.11,0.73c-0.87,0,-1.33,-0.43,-1.33,-1.2l-2.13,0c0,1.85,1.3,2.72,3.42,2.72c2.07,0,3.36,-0.96,3.36,-2.39c0,-1.86,-1.5,-2.2,-2.87,-2.56c-1.15,-0.3,-1.63,-0.43,-1.63,-0.98c0,-0.43,0.36,-0.7,1.03,-0.7c0.75,0,1.2,0.33,1.2,1.11l2.01,0c0,-1.7,-1.2,-2.58,-3.19,-2.58z"></path></svg>
