<?xml version="1.0" encoding="UTF-8" standalone="no"?>
<!DOCTYPE svg PUBLIC "-//W3C//DTD SVG 1.1//EN" "http://www.w3.org/Graphics/SVG/1.1/DTD/svg11.dtd">
<svg width="160" height="68" viewBox="0 0 160 68" version="1.1" xmlns="http://www.w3.org/2000/svg" xmlns:xlink="http://www.w3.org/1999/xlink"><path fill="#0000dc" d="M-0.06,3l0,26.6l4.14,0l0,-26.6zm4.29,0l2.59,26.6l1.4,0l-2.58,-26.6zm6.73,0l-2.58,26.6l1.4,0l2.59,-26.6zm1.56,0l0,26.6l4.18,0l0,-26.6zm15.69,0l0,20.48c0,3.57,3.23,6.35,6.69,6.35c3.46,0,6.69,-2.78,6.69,-6.35l0,-20.48l-4.18,0l0,20.33c0,1.44,-1.29,2.47,-2.51,2.47c-1.22,0,-2.51,-1.03,-2.51,-2.47l0,-20.33zm26.26,0l0,26.6l4.18,0l0,-26.6zm4.33,0l3.95,26.6l1.45,0l-3.95,-26.6zm5.55,0l0,26.6l4.18,0l0,-26.6zm18.05,25.12l0,1.48l11.36,0l0,-1.48l-3.61,0l0,-23.64l3.61,0l0,-1.48l-11.36,0l0,1.48l3.57,0l0,23.64z"></path><path fill="#0000dc" d="M6.21,41.5l-5.74,26.6l2.13,0l1.79,-8.4l7.75,0l1.82,8.4l2.13,0l-5.66,-26.6l-2.05,0l3.42,16.3l-7.07,0l3.49,-16.3zm22.72,0l0,26.6l2.06,0l0,-11.25l3.45,0l6.31,11.25l2.36,0l-6.5,-11.48c3.12,-0.26,5.59,-2.88,5.59,-6.11l0,-2.66c0,-3.46,-2.89,-6.35,-6.35,-6.35zm6.73,13.41l-4.67,0l0,-11.51l4.67,0c2.43,0,4.52,1.98,4.52,4.48l0,2.4c0,2.73,-1.97,4.63,-4.52,4.63zm24.81,-11.51l0,24.7l2.06,0l0,-24.7l7.1,0l0,-1.9l-16.26,0l0,1.9zm27.63,24.93c3.65,0,6.57,-2.59,6.57,-6.35l0,-1.63c0,-4.33,-3.64,-5.82,-6.15,-6.39c-2.32,-0.53,-4.94,-1.4,-4.94,-4.52l0,-1.78c0,-2.47,2.13,-4.41,4.52,-4.41c2.36,0,4.52,1.94,4.52,4.41l0,0.95l2.05,0l0,-0.99c0,-3.65,-2.92,-6.35,-6.57,-6.35c-3.65,0,-6.57,2.7,-6.57,6.35l0,1.82c0,4.45,3.76,5.85,6.08,6.39c2.43,0.53,5.01,1.4,5.01,4.56l0,1.55c0,2.47,-2.13,4.41,-4.48,4.41c-2.4,0,-4.56,-1.94,-4.56,-4.41l0,-0.87l-2.05,0l0,0.91c0,3.76,2.92,6.35,6.57,6.35z"></path><path fill="#0000dc" d="M115.44,2.77c-3.02,0,-4.88,2.13,-4.88,5.58c0,3.46,1.84,5.58,4.84,5.58c2.61,0,4.3,-1.46,4.51,-3.99l-2.26,0c-0.17,1.3,-0.99,2.04,-2.25,2.04c-1.59,0,-2.57,-1.37,-2.57,-3.63c0,-2.25,1,-3.63,2.61,-3.63c1.25,0,2.08,0.75,2.21,1.99l2.22,0c-0.1,-2.32,-1.79,-3.94,-4.43,-3.94zm9.4,9.67c-0.9,0,-1.67,-0.55,-1.73,-2.13l5.48,0c0,-0.84,-0.08,-1.42,-0.25,-1.95c-0.48,-1.54,-1.76,-2.53,-3.52,-2.53c-2.38,0,-3.78,1.74,-3.78,3.99c0,2.43,1.4,4.11,3.8,4.11c2.02,0,3.34,-1.16,3.64,-2.55l-2.15,0c-0.1,0.61,-0.66,1.06,-1.49,1.06zm-0.02,-5.13c0.84,0,1.53,0.53,1.66,1.68l-3.32,0c0.16,-1.15,0.81,-1.68,1.66,-1.68zm9.54,-1.42c-0.97,0,-1.74,0.46,-2.23,1.14l-0.03,0l0,-0.96l-1.97,0l0,7.62l2.1,0l0,-4.08c0,-1.38,0.63,-2.07,1.5,-2.07c0.83,0,1.34,0.52,1.34,1.68l0,4.47l2.1,0l0,-4.68c0,-2.07,-1.1,-3.12,-2.81,-3.12zm8.1,6.22c-0.72,0,-0.99,-0.33,-0.99,-1.17l0,-3.31l1.46,0l0,-1.56l-1.46,0l0,-1.98l-2.1,0l0,1.98l-1.23,0l0,1.56l1.23,0l0,3.69c0,1.77,0.77,2.47,2.52,2.47c0.36,0,0.83,-0.06,1.11,-0.15l0,-1.6c-0.13,0.04,-0.34,0.07,-0.54,0.07zm5.98,-6.16c-0.9,0,-1.57,0.37,-2.08,1.2l-0.03,0l0,-1.08l-1.93,0l0,7.62l2.1,0l0,-3.6c0,-1.5,0.69,-2.31,1.97,-2.31c0.22,0,0.43,0.03,0.66,0.07l0,-1.81c-0.2,-0.06,-0.47,-0.09,-0.69,-0.09zm4.55,-0.12c-2.18,0,-3.23,1.17,-3.3,2.62l2.04,0c0.03,-0.72,0.48,-1.15,1.26,-1.15c0.73,0,1.24,0.39,1.24,1.35l0,0.27c-0.48,0.03,-1.33,0.12,-1.9,0.21c-2.21,0.34,-2.96,1.18,-2.96,2.43c0,1.32,0.98,2.31,2.6,2.31c1.05,0,1.9,-0.39,2.47,-1.2l0.03,0c0,0.37,0.03,0.7,0.11,1.02l1.89,0c-0.14,-0.51,-0.21,-1.13,-0.21,-2.09l0,-2.76c0,-1.99,-1.11,-3.01,-3.27,-3.01zm1.24,4.65c0,0.69,-0.07,1.09,-0.43,1.45c-0.3,0.3,-0.77,0.44,-1.2,0.44c-0.74,0,-1.13,-0.39,-1.13,-0.96c0,-0.62,0.36,-0.9,1.23,-1.05c0.45,-0.08,1.08,-0.14,1.53,-0.17zm6.08,3.21l0,-10.68l-2.1,0l0,10.68z"></path><path fill="#0000dc" d="M113.44,29.8l0,-8.79l-2.21,0l0,10.68l7.24,0l0,-1.89zm8.31,-6.99l0,-1.8l-2.11,0l0,1.8zm0,8.88l0,-7.62l-2.11,0l0,7.62zm4.14,-6.71l0,-3.97l-2.11,0l0,10.68l2.05,0l0,-1.01l0.03,0c0.46,0.78,1.3,1.2,2.18,1.2c1.93,0,3.17,-1.57,3.17,-4c0,-2.43,-1.23,-4,-3.14,-4c-0.87,0,-1.69,0.38,-2.15,1.1zm1.48,0.5c1.01,0,1.65,0.94,1.65,2.4c0,1.45,-0.64,2.4,-1.65,2.4c-0.95,0,-1.59,-0.89,-1.59,-2.4c0,-1.52,0.64,-2.4,1.59,-2.4zm9.44,-1.53c-0.9,0,-1.58,0.37,-2.09,1.2l-0.03,0l0,-1.08l-1.93,0l0,7.62l2.1,0l0,-3.6c0,-1.5,0.69,-2.31,1.98,-2.31c0.21,0,0.42,0.03,0.66,0.07l0,-1.81c-0.21,-0.06,-0.48,-0.09,-0.69,-0.09zm4.54,-0.12c-2.17,0,-3.22,1.17,-3.3,2.62l2.04,0c0.03,-0.72,0.48,-1.15,1.26,-1.15c0.74,0,1.24,0.39,1.24,1.35l0,0.27c-0.47,0.03,-1.33,0.12,-1.9,0.21c-2.21,0.34,-2.96,1.18,-2.96,2.43c0,1.32,0.98,2.31,2.6,2.31c1.05,0,1.9,-0.39,2.48,-1.2l0.03,0c0,0.37,0.03,0.7,0.1,1.02l1.89,0c-0.14,-0.51,-0.21,-1.13,-0.21,-2.09l0,-2.76c0,-1.99,-1.11,-3.01,-3.27,-3.01zm1.24,4.65c0,0.69,-0.07,1.09,-0.43,1.45c-0.3,0.3,-0.76,0.44,-1.2,0.44c-0.74,0,-1.12,-0.39,-1.12,-0.96c0,-0.62,0.35,-0.9,1.22,-1.05c0.45,-0.08,1.09,-0.14,1.53,-0.17zm8.03,-4.53c-0.9,0,-1.57,0.37,-2.08,1.2l-0.03,0l0,-1.08l-1.94,0l0,7.62l2.1,0l0,-3.6c0,-1.5,0.69,-2.31,1.98,-2.31c0.21,0,0.42,0.03,0.66,0.07l0,-1.81c-0.21,-0.06,-0.48,-0.09,-0.69,-0.09zm8.47,0.12l-2.15,0l-0.83,2.55c-0.34,1.05,-0.63,2.13,-0.89,3.19l-0.03,0c-0.23,-1.06,-0.52,-2.14,-0.83,-3.19l-0.78,-2.55l-2.25,0l2.16,6.19c0.29,0.86,0.35,1.1,0.35,1.38c0,0.75,-0.55,1.24,-1.39,1.24c-0.31,0,-0.6,-0.05,-0.81,-0.13l0,1.68c0.32,0.08,0.72,0.12,1.1,0.12c1.9,0,2.86,-0.67,3.63,-2.82z"></path></svg>
